<svg id="Ñëîé_1" data-name="Ñëîé 1" xmlns="http://www.w3.org/2000/svg" viewBox="0 0 341.58 305.64"><defs><style>.cls-1{fill:#0cf;fill-rule:evenodd;}</style></defs><path class="cls-1" d="M366.4,316.16c-69.67-31.6-159-2.26-200.76,69.62,73.39,9,44.76,90.17,157,81.37a426.59,426.59,0,0,1,16.73,44.4c4.88-16.66,8-33.16,8.41-49.4a133.38,133.38,0,0,0,18.63-6.74,93.91,93.91,0,0,1,0-139.25Zm65.72,78.2C418.87,424,395.68,443.48,368.35,454a87.27,87.27,0,0,1,15.16-132.09c24.25,16.39,42.42,40.63,48.61,72.49ZM90.54,332.44c31.57-3.6,55.23,15.43,72,54.08-3.33,42-27.32,53.31-40.94,62.57,8.46-35.81-4.85-46.06,3.4-56.29-11.13-7-22.22-24.81-34.5-60.36ZM245,471.64a342.11,342.11,0,0,0,41.24,1.71c-17.58,19.86-32.76,41.65-47,64.22-.8-22.94.63-45.09,5.72-65.93Zm83.31-174.15c-29.11-3.73-55.94.82-85,16.33,22.28-23.73,42.91-46.27,52.67-81.89,17.13,9.48,34.24,40,32.33,65.56Zm54,69.92a7.65,7.65,0,0,0-.08,15.3,5.11,5.11,0,1,1,5.81-2.58,7.65,7.65,0,0,0-5.73-12.72Z" transform="translate(-90.54 -231.93)"/></svg>